Genre:Comedy | Family | Romance
 Language:English
  
http://www.imdb.com/title/tt1222817/

 Source:ERDNA Thanks!
 
Format : MPEG-4
 Format profile : Base Media
 Codec ID : isom
 File size : 1.16 GiB
 Duration : 1h 36mn
 Overall bit rate : 1 723 Kbps
 
Video
 ID : 1
 Format : AVC
 Format/Info : Advanced Video Codec
 Format profile : High@L4.1
 Format settings, CABAC : Yes
 Format settings, ReFrames : 3 frames
 Codec ID : avc1
 Codec ID/Info : Advanced Video Coding
 Duration : 1h 36mn
 Bit rate mode : Variable
 Bit rate : 1 500 Kbps
 Maximum bit rate : 6 121 Kbps
 Width : 720 pixels
 Height : 304 pixels
 Display aspect ratio : 2.35:1
 Frame rate mode : Constant
 Frame rate : 23.976 fps
 Color space : YUV
 Chroma subsampling : 4:2:0
 Bit depth : 8 bits
 Scan type : Progressive
 Bits/(Pixel*Frame) : 0.286
 Stream size : 1.01 GiB (87%)
 Writing library : x264
 
Audio
 ID : 2
 Format : AAC
 Format/Info : Advanced Audio Codec
 Format version : Version 4
 Format profile : LC
 Format settings, SBR : No
 Codec ID : 40
 Duration : 1h 36mn
 Bit rate mode : Variable
 Bit rate : 224 Kbps
 Maximum bit rate : 285 Kbps
 Channel(s) : 2 channels
 Channel positions : Front: L R
 Sampling rate : 48.0 KHz
 Stream size : 155 MiB (13%)
 

Plot:
 A group of zoo animals decide to break their code of silence in order to help their lovable zookeeper (Kevin James) find love -- without opting to leave his current job for something more illustrious. woman.
  
http://leetleech.org/images/29840159962994829652.png
 
http://leetleech.org/images/98303707042118889717.png
 
http://leetleech.org/images/69965116680201776887.png
 
http://leetleech.org/images/54062828403134335794.png